# xmcd
#
# Track frame offsets: 
#        150
#        18661
#        33483
#        52315
#        67968
#        78052
#        94748
#        112508
#        129255
#        141393
#        158838
#        189496
#        202062
#
# Disc length: 2883 seconds
#
# Revision: 1
# Processed by: cddbd v1.5.2PL0 Copyright (c) Steve Scherf et al.
# Submitted via: ExactAudioCopy v1.0b1
#
DISCID=ac0b410d
DTITLE=Barbarian Bluesband - Devil's Jam
DYEAR=1996
DGENRE=Blues
TTITLE0=La Brunch
TTITLE1=Driving Down The Highway
TTITLE2=Leavin' Trunk
TTITLE3=Dogs
TTITLE4=Beer, Blues And Junkfood
TTITLE5=Omar
TTITLE6=Go Down
TTITLE7=Ain't Gonna Tell
TTITLE8=Red Suit Blues
TTITLE9=Hanging Low
TTITLE10=Blues Six
TTITLE11=Nothing (works out right)
TTITLE12=Chicken Street
EXTD=YEAR: 1996
EXTT0=
EXTT1=
EXTT2=
EXTT3=
EXTT4=
EXTT5=
EXTT6=
EXTT7=
EXTT8=
EXTT9=
EXTT10=
EXTT11=
EXTT12=
PLAYORDER=
